# xmcd
#
# Track frame offsets: 
#        150
#        24282
#        51695
#
# Disc length: 880 seconds
#
# Revision: 10
# Processed by: cddbd v1.5.2PL0 Copyright (c) Steve Scherf et al.
# Submitted via: ExactAudioCopyFreeDBPlugin 1.0
#
DISCID=21036e03
DTITLE=Lisa Stansfield - In All The Right Places
DYEAR=1993
DGENRE=Pop
TTITLE0=In All The Right Places (Edit)
TTITLE1=In All The Right Places (Soul Mix)
TTITLE2=In All The Right Places (Instrumental)
EXTD=
EXTT0=
EXTT1=
EXTT2=
PLAYORDER=
